<?xml version="1.0" encoding="utf-8"?>
<!-- Generator: Adobe Illustrator 19.2.1, SVG Export Plug-In . SVG Version: 6.00 Build 0)  -->
<svg version="1.1" id="Слой_1" xmlns="http://www.w3.org/2000/svg" xmlns:xlink="http://www.w3.org/1999/xlink" x="0px" y="0px"
	 viewBox="0 0 550 408" style="enable-background:new 0 0 550 408;" xml:space="preserve">
<style type="text/css">
	.st0{fill:none;stroke:#0046BB;stroke-width:3;stroke-linecap:round;stroke-linejoin:round;stroke-miterlimit:10;}
	.st1{clip-path:url(#SVGID_2_);fill:#0046BB;}
	.st2{clip-path:url(#SVGID_4_);fill:none;}
	.st3{clip-path:url(#SVGID_4_);}
	.st4{fill:#0A8EEF;}
	.st5{fill:none;stroke:#9D9FA3;stroke-width:2;stroke-linecap:round;stroke-linejoin:round;stroke-miterlimit:10;}
</style>
<path class="st0" d="M397,250.6H137.6c-6.6,0-12-5.4-12-12V35.2c0-6.6,5.4-12,12-12H397c6.6,0,12,5.4,12,12v203.3
	C409,245.2,403.6,250.6,397,250.6z"/>
<path d="M397.3,221H138c-6.6,0-12-5.4-12-12V35.2c0-6.6,5.4-12,12-12h259.3c6.6,0,12,5.4,12,12V209C409.3,215.6,403.9,221,397.3,221
	z"/>
<g>
	<defs>
		<path id="SVGID_1_" d="M397.3,223.6H138c-6.6,0-12-5.4-12-12V35.2c0-6.6,5.4-12,12-12h259.3c6.6,0,12,5.4,12,12v176.3
			C409.3,218.2,403.9,223.6,397.3,223.6z"/>
	</defs>
	<clipPath id="SVGID_2_">
		<use xlink:href="#SVGID_1_"  style="overflow:visible;"/>
	</clipPath>
	<polygon class="st1" points="114.3,16.7 116,220.9 167.3,220.9 316,17.3 	"/>
</g>
<g>
	<defs>
		<polygon id="SVGID_3_" points="311.3,23.2 162.6,231.2 100.6,227.2 117.3,17.2 		"/>
	</defs>
	<clipPath id="SVGID_4_">
		<use xlink:href="#SVGID_3_"  style="overflow:visible;"/>
	</clipPath>
	<path class="st2" d="M397.3,226.6H138c-6.6,0-12-5.4-12-12V35.2c0-6.6,5.4-12,12-12h259.3c6.6,0,12,5.4,12,12v179.3
		C409.3,221.2,403.9,226.6,397.3,226.6z"/>
	<g class="st3">
		<path class="st4" d="M196.7,66.2h-44c-1.2,0-2.2-1-2.2-2.3v0c0-1.2,1-2.3,2.2-2.3h44c1.2,0,2.3,1,2.3,2.3v0
			C199,65.2,197.9,66.2,196.7,66.2z"/>
		<path class="st4" d="M231.7,80.2H221c-1.2,0-2.3-1-2.3-2.3l0,0c0-1.2,1-2.3,2.3-2.3h10.7c1.2,0,2.3,1,2.3,2.3l0,0
			C234,79.2,232.9,80.2,231.7,80.2z"/>
		<path class="st4" d="M194.7,93.2H151c-1.2,0-2.3-1-2.3-2.2v0c0-1.2,1-2.3,2.3-2.3h43.7c1.2,0,2.2,1,2.2,2.3v0
			C197,92.2,195.9,93.2,194.7,93.2z"/>
		<path class="st4" d="M251.7,93.9H208c-1.2,0-2.3-1-2.3-2.3v0c0-1.2,1-2.2,2.3-2.2h43.7c1.2,0,2.2,1,2.2,2.2v0
			C254,92.9,252.9,93.9,251.7,93.9z"/>
		<path class="st4" d="M240.4,108.2H152c-1.2,0-2.3-1-2.3-2.2v0c0-1.2,1-2.3,2.3-2.3h88.3c1.2,0,2.3,1,2.3,2.3v0
			C242.6,107.2,241.6,108.2,240.4,108.2z"/>
		<path class="st4" d="M212,80.2h-61c-1.2,0-2.3-1-2.3-2.3v0c0-1.2,1-2.2,2.3-2.2h61c1.2,0,2.3,1,2.3,2.2v0
			C214.3,79.2,213.3,80.2,212,80.2z"/>
		<path class="st4" d="M194.7,123.9h-42c-1.2,0-2.3-1-2.3-2.3l0,0c0-1.2,1-2.3,2.3-2.3h42c1.2,0,2.2,1,2.2,2.3l0,0
			C197,122.9,195.9,123.9,194.7,123.9z"/>
		<path class="st4" d="M225.4,157.2h-69.2c-1.2,0-2.3-1-2.3-2.3l0,0c0-1.2,1-2.3,2.3-2.3h69.2c1.2,0,2.3,1,2.3,2.3l0,0
			C227.6,156.2,226.6,157.2,225.4,157.2z"/>
		<path class="st4" d="M218,140.2h-51.3c-1.2,0-2.3-1-2.3-2.3l0,0c0-1.2,1-2.3,2.3-2.3H218c1.2,0,2.3,1,2.3,2.3l0,0
			C220.3,139.2,219.3,140.2,218,140.2z"/>
		<path class="st4" d="M230.7,123.9h-23.3c-1.2,0-2.3-1-2.3-2.3l0,0c0-1.2,1-2.3,2.3-2.3h23.3c1.2,0,2.3,1,2.3,2.3l0,0
			C233,122.9,231.9,123.9,230.7,123.9z"/>
		<path class="st4" d="M204.7,174.6h-51.3c-1.2,0-2.3-1-2.3-2.3l0,0c0-1.2,1-2.3,2.3-2.3h51.3c1.2,0,2.3,1,2.3,2.3l0,0
			C207,173.5,205.9,174.6,204.7,174.6z"/>
	</g>
</g>
<polyline class="st0" points="222,145.9 262,145.2 305.3,108.6 331.3,135.2 339.3,89.9 382,85.9 396.6,61.2 410.6,44.6 434.3,44.6 
	"/>
<polyline class="st0" points="204.7,170.1 230.6,195.9 257.3,161.2 290.6,180.6 301.3,145.9 342,105.2 379.3,121.9 409.3,146.6 
	517.6,146.6 "/>
<ellipse class="st5" cx="18.6" cy="133.6" rx="10.7" ry="11"/>
<ellipse class="st0" cx="267.8" cy="235.2" rx="6.2" ry="6.4"/>
<ellipse class="st5" cx="125" cy="321.6" rx="10.7" ry="11"/>
<ellipse class="st5" cx="166.3" cy="381.6" rx="10.7" ry="11"/>
<ellipse class="st5" cx="408" cy="327.6" rx="10.7" ry="11"/>
<ellipse class="st5" cx="528.3" cy="146.2" rx="10.7" ry="11"/>
<ellipse class="st5" cx="484" cy="95.6" rx="10.7" ry="11"/>
<ellipse class="st5" cx="445" cy="44.9" rx="10.7" ry="11"/>
<polyline class="st5" points="29.3,133.6 84,133.6 84,198.6 125.3,198.6 "/>
<polyline class="st5" points="152,251.9 152,321.9 135.6,321.9 "/>
<line class="st5" x1="166" y1="251.2" x2="166" y2="370.6"/>
<polyline class="st5" points="174.6,251.9 174.6,328.6 397.3,328.6 "/>
<polyline class="st5" points="410.6,111.2 444,111.2 444,94.6 473.3,94.6 "/>
<line class="st0" x1="267.8" y1="250.7" x2="267.8" y2="274.7"/>
<line class="st0" x1="181.3" y1="277.2" x2="354.3" y2="277.2"/>
<rect x="126" y="209" width="283.5" height="12.5"/>
</svg>
