<?xml version="1.0" encoding="utf-8"?>
<!-- Generator: Adobe Illustrator 19.2.1, SVG Export Plug-In . SVG Version: 6.00 Build 0)  -->
<svg version="1.1" id="Слой_1" xmlns="http://www.w3.org/2000/svg" xmlns:xlink="http://www.w3.org/1999/xlink" x="0px" y="0px"
	 viewBox="0 0 203 167" style="enable-background:new 0 0 203 167;" xml:space="preserve">
<style type="text/css">
	.st0{fill:#0046BB;}
	.st1{fill:#0A8EEF;}
	.st2{clip-path:url(#SVGID_2_);fill:#0046BB;}
	.st3{fill:#ECE6E3;stroke:#0C65F4;stroke-width:3;stroke-linecap:round;stroke-linejoin:round;stroke-miterlimit:10;}
</style>
<path d="M164,73.9c-0.4-27.4-22.7-50.4-50.1-50.4c-17.5,0-34,9.5-43,23.1c-4-2.7-8.8-4.2-13.9-4.2c-13.9,0-25.2,11.3-25.2,25.2
	c0,0.5,0,1,0.1,1.4c0,0.6-0.1,1.2-0.1,1.7c-12.6,6-22.1,20.3-22.1,35.1c0,20.5,16.8,37.3,37.3,37.3h77.2c0.4,0,0.9-0.1,1.3-0.1
	c0.4,0,0.9,0.1,1.3,0.1h30.9c19.1,0,34.7-15.6,34.7-34.7C192.4,91.5,180.1,76.9,164,73.9z"/>
<path class="st0" d="M31.7,67.6c0-13.9,11.3-25.2,25.2-25.2s25.2,11.3,25.2,25.2"/>
<g>
	<path class="st1" d="M83.1,70.8c-1.7,0-3.2-1.4-3.2-3.2c0-12.2-9.9-22-22-22s-22.1,9.9-22.1,22c0,1.7-1.4,3.2-3.1,3.2
		c-1.7,0-3.2-1.4-3.2-3.2c0-15.6,12.7-28.3,28.4-28.3S86.3,52,86.3,67.6C86.3,69.3,84.8,70.8,83.1,70.8z"/>
	<g>
		<defs>
			<path id="SVGID_1_" d="M165,73.9c-0.4-27.4-22.7-50.4-50.1-50.4c-17.5,0-34,9.5-43,23.1c-4-2.7-8.8-4.2-13.9-4.2
				c-13.9,0-25.2,11.3-25.2,25.2c0,0.5,0,1,0.1,1.4c0,0.6-0.1,1.2-0.1,1.7c-12.6,6-22.1,20.3-22.1,35.1c0,20.5,16.8,37.3,37.3,37.3
				h77.2c0.4,0,0.9-0.1,1.3-0.1c0.4,0,0.9,0.1,1.3,0.1h30.9c19.1,0,34.7-15.6,34.7-34.7C193.4,91.5,181.1,76.9,165,73.9z"/>
		</defs>
		<clipPath id="SVGID_2_">
			<use xlink:href="#SVGID_1_"  style="overflow:visible;"/>
		</clipPath>
		<polygon class="st2" points="133.5,14 65,156.5 25.5,146.5 -7.5,109 -1.5,58.5 34,25.5 89.5,11 		"/>
	</g>
</g>
<path class="st3" d="M157.6,146.4h-30.9c-0.3,0-0.7,0-1,0l-0.4,0l-0.2,0c-0.3,0-0.6,0-1,0H47c-22.3,0-40.5-18.2-40.5-40.5
	c0-15,9-29.9,22.1-37.1v0c0-0.4-0.1-0.8-0.1-1.2c0-15.6,12.7-28.3,28.4-28.3c4.6,0,9,1.1,13,3.2c10.3-13.7,26.8-22.1,43.9-22.1
	c28.2,0,51.5,22.7,53.2,51c16.4,4.3,28.4,19.8,28.4,37.1C195.5,129.4,178.5,146.4,157.6,146.4z M125.3,140l0.9,0c0.2,0,0.4,0,0.5,0
	h30.9c17.4,0,31.6-14.2,31.6-31.6c0-15.2-11.1-28.7-25.8-31.5l-2.5-0.5l0-2.6c-0.3-26.1-21.4-47.3-47-47.3
	c-15.8,0-31.6,8.5-40.4,21.7L71.7,51l-2.6-1.7c-3.6-2.4-7.8-3.7-12.2-3.7c-12.2,0-22.1,9.9-22.1,22c0,0.3,0,0.5,0,0.8l0,0.7l0,0.5
	c0,0.4,0,0.8,0,1.2v2l-1.8,0.9c-11.7,5.6-20.3,19.2-20.3,32.3c0,18.8,15.3,34.2,34.2,34.2h77.2c0.2,0,0.4,0,0.5,0L125.3,140z"/>
<path class="st1" d="M47.4,79h-9.1c-0.8,0-1.5-0.7-1.5-1.5v-1.4c0-0.8,0.7-1.5,1.5-1.5h9.1c0.8,0,1.5,0.7,1.5,1.5v1.4
	C48.9,78.4,48.2,79,47.4,79z"/>
<path class="st1" d="M101.8,79h-19c-0.8,0-1.5-0.7-1.5-1.5v-1.4c0-0.8,0.7-1.5,1.5-1.5h19c0.8,0,1.5,0.7,1.5,1.5v1.4
	C103.3,78.4,102.6,79,101.8,79z"/>
<path class="st1" d="M75.7,79H54.1c-0.8,0-1.5-0.7-1.5-1.5v-1.4c0-0.8,0.7-1.5,1.5-1.5h21.6c0.8,0,1.5,0.7,1.5,1.5v1.4
	C77.2,78.4,76.5,79,75.7,79z"/>
<path class="st1" d="M93.6,68.9H57.9c-0.8,0-1.5-0.7-1.5-1.5V66c0-0.8,0.7-1.5,1.5-1.5h35.7c0.8,0,1.5,0.7,1.5,1.5v1.4
	C95.1,68.3,94.4,68.9,93.6,68.9z"/>
<path class="st1" d="M51.2,68.5H39.6c-0.8,0-1.5-0.7-1.5-1.5v-1.4c0-0.8,0.7-1.5,1.5-1.5h11.6c0.8,0,1.5,0.7,1.5,1.5V67
	C52.7,67.8,52,68.5,51.2,68.5z"/>
<path class="st1" d="M63.6,90.2H52c-0.8,0-1.5-0.7-1.5-1.5v-1.4c0-0.8,0.7-1.5,1.5-1.5h11.6c0.8,0,1.5,0.7,1.5,1.5v1.4
	C65.1,89.5,64.5,90.2,63.6,90.2z"/>
<path class="st1" d="M82.6,90.4H71c-0.8,0-1.5-0.7-1.5-1.5v-1.4c0-0.8,0.7-1.5,1.5-1.5h11.6c0.8,0,1.5,0.7,1.5,1.5v1.4
	C84.1,89.7,83.4,90.4,82.6,90.4z"/>
<path class="st1" d="M79.9,124.7H39.1c-0.8,0-1.5-0.7-1.5-1.5v-1.4c0-0.8,0.7-1.5,1.5-1.5h40.8c0.8,0,1.5,0.7,1.5,1.5v1.4
	C81.4,124,80.7,124.7,79.9,124.7z"/>
<path class="st1" d="M62.6,113.3H47.3c-0.8,0-1.5-0.7-1.5-1.5v-1.4c0-0.8,0.7-1.5,1.5-1.5h15.3c0.8,0,1.5,0.7,1.5,1.5v1.4
	C64.1,112.6,63.4,113.3,62.6,113.3z"/>
<path class="st1" d="M95.9,101.8h-42c-0.8,0-1.5-0.7-1.5-1.5v-1.4c0-0.8,0.7-1.5,1.5-1.5h42c0.8,0,1.5,0.7,1.5,1.5v1.4
	C97.4,101.1,96.7,101.8,95.9,101.8z"/>
<g>
	<g>
		<path class="st3" d="M80.7,145.7c3.1,3.2,6.8,5.6,10.8,7.3c3.9,1.6,8.1,2.5,12.4,2.5c4.3,0,8.5-0.7,12.4-2.3c4.1-1.6,7.8-4,11-7.2
			s5.6-6.8,7.3-10.8c1.6-3.9,2.5-8.1,2.5-12.4s-0.7-8.5-2.3-12.4c-1.6-4.1-4-7.8-7.2-11c-3.9-4-8.7-6.9-14-8.4l0.5-55.7
			c0-1.3-0.8-2.5-2.1-3c-0.3-0.1-0.6-0.2-0.9-0.2L98.6,32c-0.3,0-0.6,0-0.9,0.2c-1.3,0.5-2.1,1.7-2.1,3l-0.1,7.7l-11.1-0.1
			c-0.3,0-0.6,0-0.9,0.2c-1.3,0.5-2.1,1.7-2.1,3l-0.1,12.3c0,0.3,0,0.6,0.2,0.9c0.5,1.3,1.7,2.1,3,2.1l10.9,0.1l-0.2,29.5
			C89.9,92.4,85,95.2,81,99.1c-3.2,3.1-5.6,6.8-7.3,10.8c-1.6,3.9-2.5,8.1-2.5,12.4c0,4.3,0.7,8.5,2.3,12.4
			C75.2,138.9,77.6,142.6,80.7,145.7z M87.8,122.5c0-4.4,1.8-8.5,4.9-11.5c3.1-3.1,7.2-4.7,11.6-4.7c4.4,0,8.5,1.8,11.5,4.9
			c3.1,3.1,4.7,7.2,4.7,11.6c0,4.4-1.8,8.5-4.9,11.5c-3.1,3.1-7.2,4.7-11.6,4.7s-8.5-1.8-11.5-4.9C89.5,131,87.8,126.9,87.8,122.5z"
			/>
	</g>
</g>
</svg>
