<svg width="18" height="32" xmlns="http://www.w3.org/2000/svg">

 <g>
  <title>Layer 1</title>
  <path id="imagebot_1" d="M 9 0 C 4.029 0 0 4.029 0 9 L 0 23 C 0 27.970999999999997 4.029 32 9 32 C 13.970999999999997 32 18 27.970999999999997 18 23 L 18 9 C 18 4.029 13.970999999999997 0 9 0 z M 16 23 C 16 26.866 12.866 30 9 30 S 2 26.866 2 23 L 2 9 C 2 5.134 5.134 2 9 2 S 16 5.134 16 9 L 16 23 z M 9 5 C 8.448 5 8 5.448 8 6 L 8 11 C 8 11.553 8.448 12 9 12 C 9.552999999999997 12 10 11.553 10 11 L 10 6 C 10 5.448 9.552999999999997 5 9 5 z" fill="#ffffff"/>
 </g>
</svg>